<svg width="171" height="185" viewBox="0 0 171 185" fill="none" xmlns="http://www.w3.org/2000/svg">
<g clip-path="url(#clip0_108_56)">
<path d="M161.932 126.035C161.932 158.529 128.111 184.871 86.3907 184.871C44.6704 184.871 10.8491 158.529 10.8491 126.035C10.8491 93.5407 44.6704 67.1989 86.3907 67.1989C128.111 67.1989 161.932 93.5407 161.932 126.035Z" fill="#AFAFAF" fill-opacity="0.3"/>
<path d="M53.48 137.874C57.26 133.06 64.2263 132.222 69.0393 136.004C73.8519 139.785 74.6893 146.753 70.9093 151.568L66.2545 157.496C62.4745 162.31 55.5082 163.148 50.6952 159.367C45.8822 155.585 45.0448 148.617 48.8252 143.802L53.48 137.874Z" fill="#F49000"/>
<path d="M118.311 137.874C114.531 133.06 107.565 132.222 102.752 136.004C97.9387 139.785 97.1018 146.753 100.882 151.568L105.537 157.496C109.317 162.31 116.283 163.148 121.096 159.367C125.909 155.585 126.746 148.617 122.966 143.802L118.311 137.874Z" fill="#F49000"/>
<path d="M64.7836 4.07999C70.7948 6.22357 77.0927 7.64909 85.4676 7.64909C93.8421 7.64909 100.14 6.22357 106.151 4.07999C111.639 2.12317 116.887 0.251587 123.258 0.251587C144.618 0.251587 151.464 24.2205 151.19 32.0959V88.1831C151.19 142.914 106.69 157.693 85.4676 158.241C64.2444 157.693 19.7448 142.914 19.7448 88.1831V32.0959C19.4709 24.2205 26.317 0.251587 47.677 0.251587C54.0479 0.251587 59.296 2.12316 64.7836 4.07999Z" fill="#2F6EE7"/>
<path d="M0.217651 114.417C0.217651 109.212 14.6385 82.592 21.849 68.4746L34.0486 113.186C32.34 117.322 26.2777 125.595 15.6979 125.595C2.47305 125.595 0.217651 118.263 0.217651 114.417Z" fill="#2F6EE7"/>
<path d="M170.718 114.417C170.718 109.212 156.297 82.592 149.087 68.4746L136.887 113.186C138.596 117.322 144.658 125.595 155.238 125.595C168.462 125.595 170.718 118.263 170.718 114.417Z" fill="#2F6EE7"/>
<path d="M120.742 46.6779C117.045 46.6779 105.227 75.6507 86.4345 75.6507C67.8989 75.6507 58.2351 47.5512 52.3817 47.5512C47.0418 47.5512 48.3253 55.4106 48.582 58.2356C46.6169 56.617 43.8092 53.7579 41.6506 53.0725C39.4918 52.387 38.005 57.0018 38.005 59.4158C38.005 60.3916 38.1077 60.8564 38.7751 63.3217C36.67 65.2734 26.2572 68.8688 26.2572 85.1505C26.2572 118.176 43.6119 125.88 57.8349 125.88C69.2131 125.88 75.7534 118.211 77.1911 114.376H94.5986C96.1048 118.262 102.578 126.035 116.421 126.035C139.321 126.035 145.534 102.305 145.534 85.1505C145.534 71.4268 135.923 64.195 133.578 62.2946C133.818 61.8835 134.297 61.9016 134.297 58.6967C134.297 54.6903 132.295 51.8419 130.703 51.8419C129.111 51.8419 127.109 53.9724 124.798 56.1814C124.798 50.7368 124.439 46.6779 120.742 46.6779Z" fill="#719AE8"/>
<path d="M79.6651 144.905C79.6651 143.271 68.1379 141.084 63.671 141.084C59.5121 141.084 65.1083 148.197 71.7581 148.197C78.0732 148.197 79.6651 145.986 79.6651 144.905Z" fill="#719AE8"/>
<path d="M92.1255 144.905C92.1255 143.271 103.653 141.084 108.12 141.084C112.278 141.084 106.682 148.197 100.032 148.197C93.717 148.197 92.1255 145.986 92.1255 144.905Z" fill="#719AE8"/>
<path d="M80.4865 151.441C78.3869 151.076 77.4056 151.638 77.4056 152.83C77.4056 154.814 82.4635 155.85 86.0319 155.85C89.6004 155.85 94.3498 154.219 94.3498 152.83C94.3498 151.719 93.3808 151.355 92.7325 151.441C89.2924 151.895 82.3605 151.767 80.4865 151.441Z" fill="#719AE8"/>
<path d="M95.8764 116.442C95.8764 121.876 91.4731 126.28 86.0413 126.28C80.6095 126.28 76.2057 121.876 76.2057 116.442C76.2057 111.009 80.6095 106.604 86.0413 106.604C91.4731 106.604 95.8764 111.009 95.8764 116.442Z" fill="#F49000"/>
<path d="M98.9356 114.615C98.9356 110.579 92.7402 105.439 86.1126 105.439C78.3807 105.439 73.6743 111.348 73.6743 114.615C73.6743 116.584 82.8472 123.022 86.1126 123.022C89.3784 123.022 98.9356 115.671 98.9356 114.615Z" fill="#FFC200"/>
<path fill-rule="evenodd" clip-rule="evenodd" d="M85.7477 113.604C85.1088 113.657 84.6134 113.843 84.4629 113.918C83.0428 114.629 81.3156 114.053 80.6054 112.632C79.8951 111.211 80.4709 109.483 81.8914 108.773C83.284 108.076 86.7778 107.057 90.0994 108.798C91.5059 109.535 92.0488 111.273 91.3123 112.68C90.5754 114.087 88.8376 114.63 87.431 113.893C86.9439 113.638 86.364 113.553 85.7477 113.604Z" fill="#FFDE00"/>
<path d="M72.4762 95.2738C72.4762 82.8037 63.1515 72.2559 50.2765 72.2559C40.8034 72.2559 35.3438 77.186 35.3438 85.3187C35.3438 90.8576 35.3438 89.3193 35.3438 93.361C35.3438 102.591 40.6647 116.865 55.6513 118.538C67.9605 119.912 72.4762 108.962 72.4762 103.835V95.2738Z" fill="white"/>
<path d="M68.0555 100.745C68.0555 90.0487 64.1787 85.9586 57.8664 85.9586C49.2184 85.9586 50.461 93.4328 50.461 97.673C50.461 107.636 56.341 110.764 60.9633 110.764C65.5852 110.764 68.0555 107.944 68.0555 100.745Z" fill="#4B4B4B"/>
<path d="M56.76 89.7918C56.76 92.8503 54.2812 95.3295 51.2241 95.3295C48.1666 95.3295 45.6881 92.8503 45.6881 89.7918C45.6881 86.7338 48.1666 84.2542 51.2241 84.2542C54.2812 84.2542 56.76 86.7338 56.76 89.7918Z" fill="white"/>
<path d="M99.3149 95.2738C99.3149 82.8037 108.639 72.2559 121.514 72.2559C130.988 72.2559 136.447 77.186 136.447 85.3187C136.447 90.8576 136.447 89.3193 136.447 93.361C136.447 102.591 131.126 116.865 116.14 118.538C103.83 119.912 99.3149 108.962 99.3149 103.835V95.2738Z" fill="white"/>
<path d="M103.736 100.745C103.736 90.0487 107.613 85.9586 113.925 85.9586C122.573 85.9586 121.33 93.4328 121.33 97.673C121.33 107.636 115.45 110.764 110.828 110.764C106.206 110.764 103.736 107.944 103.736 100.745Z" fill="#4B4B4B"/>
<path d="M100.269 89.7918C100.269 92.8503 102.747 95.3295 105.805 95.3295C108.862 95.3295 111.341 92.8503 111.341 89.7918C111.341 86.7338 108.862 84.2542 105.805 84.2542C102.747 84.2542 100.269 86.7338 100.269 89.7918Z" fill="white"/>
<path d="M62.8533 31.9407C62.1333 31.9407 61.4333 31.8741 60.7533 31.7407C60.0866 31.6074 59.48 31.4007 58.9333 31.1207C58.68 30.9874 58.5066 30.8274 58.4133 30.6407C58.3333 30.4541 58.3066 30.2607 58.3333 30.0607C58.3733 29.8741 58.4533 29.7074 58.5733 29.5607C58.7066 29.4141 58.8666 29.3141 59.0533 29.2607C59.24 29.2074 59.4333 29.2341 59.6333 29.3407C60.22 29.6341 60.7733 29.8207 61.2933 29.9007C61.8266 29.9941 62.28 30.0407 62.6533 30.0407C63.5466 30.0407 64.2133 29.8207 64.6533 29.3807C65.1066 28.9541 65.3333 28.3141 65.3333 27.4607V25.6607H65.5133C65.3133 26.3407 64.8933 26.8874 64.2533 27.3007C63.6266 27.7007 62.9133 27.9007 62.1133 27.9007C61.2333 27.9007 60.4666 27.7007 59.8133 27.3007C59.16 26.8874 58.6533 26.3141 58.2933 25.5807C57.9333 24.8474 57.7533 23.9941 57.7533 23.0207C57.7533 22.2874 57.8533 21.6274 58.0533 21.0407C58.2666 20.4407 58.56 19.9274 58.9333 19.5007C59.32 19.0741 59.78 18.7474 60.3133 18.5207C60.86 18.2807 61.46 18.1607 62.1133 18.1607C62.94 18.1607 63.66 18.3674 64.2733 18.7807C64.9 19.1807 65.3066 19.7141 65.4933 20.3807L65.2933 20.8807V19.4607C65.2933 19.0474 65.4 18.7341 65.6133 18.5207C65.84 18.3074 66.1466 18.2007 66.5333 18.2007C66.9333 18.2007 67.24 18.3074 67.4533 18.5207C67.6666 18.7341 67.7733 19.0474 67.7733 19.4607V27.1607C67.7733 28.7474 67.3533 29.9407 66.5133 30.7407C65.6733 31.5407 64.4533 31.9407 62.8533 31.9407ZM62.7933 26.0007C63.3133 26.0007 63.76 25.8807 64.1333 25.6407C64.5066 25.4007 64.7933 25.0607 64.9933 24.6207C65.2066 24.1674 65.3133 23.6341 65.3133 23.0207C65.3133 22.1007 65.0866 21.3807 64.6333 20.8607C64.18 20.3274 63.5666 20.0607 62.7933 20.0607C62.2733 20.0607 61.8266 20.1807 61.4533 20.4207C61.08 20.6607 60.7866 21.0007 60.5733 21.4407C60.3733 21.8807 60.2733 22.4074 60.2733 23.0207C60.2733 23.9407 60.5 24.6674 60.9533 25.2007C61.4066 25.7341 62.02 26.0007 62.7933 26.0007ZM71.6436 28.3007C71.2436 28.3007 70.9369 28.1941 70.7236 27.9807C70.5103 27.7541 70.4036 27.4341 70.4036 27.0207V19.4607C70.4036 19.0474 70.5103 18.7341 70.7236 18.5207C70.9369 18.3074 71.2369 18.2007 71.6236 18.2007C72.0103 18.2007 72.3103 18.3074 72.5236 18.5207C72.7369 18.7341 72.8436 19.0474 72.8436 19.4607V20.9207L72.6236 20.3207C72.8903 19.6541 73.3036 19.1274 73.8636 18.7407C74.4236 18.3541 75.0903 18.1607 75.8636 18.1607C76.6503 18.1607 77.2969 18.3474 77.8036 18.7207C78.3103 19.0941 78.6636 19.6674 78.8636 20.4407H78.5836C78.8503 19.7341 79.2903 19.1807 79.9036 18.7807C80.5169 18.3674 81.2236 18.1607 82.0236 18.1607C82.7703 18.1607 83.3836 18.3074 83.8636 18.6007C84.3569 18.8941 84.7236 19.3407 84.9636 19.9407C85.2036 20.5274 85.3236 21.2741 85.3236 22.1807V27.0207C85.3236 27.4341 85.2103 27.7541 84.9836 27.9807C84.7703 28.1941 84.4636 28.3007 84.0636 28.3007C83.6636 28.3007 83.3569 28.1941 83.1436 27.9807C82.9303 27.7541 82.8236 27.4341 82.8236 27.0207V22.2807C82.8236 21.5341 82.6969 20.9874 82.4436 20.6407C82.2036 20.2941 81.7903 20.1207 81.2036 20.1207C80.5503 20.1207 80.0369 20.3541 79.6636 20.8207C79.2903 21.2741 79.1036 21.9074 79.1036 22.7207V27.0207C79.1036 27.4341 78.9969 27.7541 78.7836 27.9807C78.5703 28.1941 78.2636 28.3007 77.8636 28.3007C77.4636 28.3007 77.1503 28.1941 76.9236 27.9807C76.7103 27.7541 76.6036 27.4341 76.6036 27.0207V22.2807C76.6036 21.5341 76.4769 20.9874 76.2236 20.6407C75.9836 20.2941 75.5769 20.1207 75.0036 20.1207C74.3503 20.1207 73.8369 20.3541 73.4636 20.8207C73.0903 21.2741 72.9036 21.9074 72.9036 22.7207V27.0207C72.9036 27.8741 72.4836 28.3007 71.6436 28.3007ZM92.4627 31.9407C91.7427 31.9407 91.0427 31.8741 90.3627 31.7407C89.696 31.6074 89.0893 31.4007 88.5427 31.1207C88.2893 30.9874 88.116 30.8274 88.0227 30.6407C87.9427 30.4541 87.916 30.2607 87.9427 30.0607C87.9827 29.8741 88.0627 29.7074 88.1827 29.5607C88.316 29.4141 88.476 29.3141 88.6627 29.2607C88.8493 29.2074 89.0427 29.2341 89.2427 29.3407C89.8293 29.6341 90.3827 29.8207 90.9027 29.9007C91.436 29.9941 91.8893 30.0407 92.2627 30.0407C93.156 30.0407 93.8227 29.8207 94.2627 29.3807C94.716 28.9541 94.9427 28.3141 94.9427 27.4607V25.6607H95.1227C94.9227 26.3407 94.5027 26.8874 93.8627 27.3007C93.236 27.7007 92.5227 27.9007 91.7227 27.9007C90.8427 27.9007 90.076 27.7007 89.4227 27.3007C88.7693 26.8874 88.2627 26.3141 87.9027 25.5807C87.5427 24.8474 87.3627 23.9941 87.3627 23.0207C87.3627 22.2874 87.4627 21.6274 87.6627 21.0407C87.876 20.4407 88.1693 19.9274 88.5427 19.5007C88.9293 19.0741 89.3893 18.7474 89.9227 18.5207C90.4693 18.2807 91.0693 18.1607 91.7227 18.1607C92.5493 18.1607 93.2693 18.3674 93.8827 18.7807C94.5093 19.1807 94.916 19.7141 95.1027 20.3807L94.9027 20.8807V19.4607C94.9027 19.0474 95.0093 18.7341 95.2227 18.5207C95.4493 18.3074 95.756 18.2007 96.1427 18.2007C96.5427 18.2007 96.8493 18.3074 97.0627 18.5207C97.276 18.7341 97.3827 19.0474 97.3827 19.4607V27.1607C97.3827 28.7474 96.9627 29.9407 96.1227 30.7407C95.2827 31.5407 94.0627 31.9407 92.4627 31.9407ZM92.4027 26.0007C92.9227 26.0007 93.3693 25.8807 93.7427 25.6407C94.116 25.4007 94.4027 25.0607 94.6027 24.6207C94.816 24.1674 94.9227 23.6341 94.9227 23.0207C94.9227 22.1007 94.696 21.3807 94.2427 20.8607C93.7893 20.3274 93.176 20.0607 92.4027 20.0607C91.8827 20.0607 91.436 20.1807 91.0627 20.4207C90.6893 20.6607 90.396 21.0007 90.1827 21.4407C89.9827 21.8807 89.8827 22.4074 89.8827 23.0207C89.8827 23.9407 90.1093 24.6674 90.5627 25.2007C91.016 25.7341 91.6293 26.0007 92.4027 26.0007ZM101.253 28.3007C100.853 28.3007 100.546 28.1941 100.333 27.9807C100.12 27.7541 100.013 27.4341 100.013 27.0207V19.4607C100.013 19.0474 100.12 18.7341 100.333 18.5207C100.546 18.3074 100.846 18.2007 101.233 18.2007C101.62 18.2007 101.92 18.3074 102.133 18.5207C102.346 18.7341 102.453 19.0474 102.453 19.4607V20.9207L102.233 20.3207C102.5 19.6541 102.913 19.1274 103.473 18.7407C104.033 18.3541 104.7 18.1607 105.473 18.1607C106.26 18.1607 106.906 18.3474 107.413 18.7207C107.92 19.0941 108.273 19.6674 108.473 20.4407H108.193C108.46 19.7341 108.9 19.1807 109.513 18.7807C110.126 18.3674 110.833 18.1607 111.633 18.1607C112.38 18.1607 112.993 18.3074 113.473 18.6007C113.966 18.8941 114.333 19.3407 114.573 19.9407C114.813 20.5274 114.933 21.2741 114.933 22.1807V27.0207C114.933 27.4341 114.82 27.7541 114.593 27.9807C114.38 28.1941 114.073 28.3007 113.673 28.3007C113.273 28.3007 112.966 28.1941 112.753 27.9807C112.54 27.7541 112.433 27.4341 112.433 27.0207V22.2807C112.433 21.5341 112.306 20.9874 112.053 20.6407C111.813 20.2941 111.4 20.1207 110.813 20.1207C110.16 20.1207 109.646 20.3541 109.273 20.8207C108.9 21.2741 108.713 21.9074 108.713 22.7207V27.0207C108.713 27.4341 108.606 27.7541 108.393 27.9807C108.18 28.1941 107.873 28.3007 107.473 28.3007C107.073 28.3007 106.76 28.1941 106.533 27.9807C106.32 27.7541 106.213 27.4341 106.213 27.0207V22.2807C106.213 21.5341 106.086 20.9874 105.833 20.6407C105.593 20.2941 105.186 20.1207 104.613 20.1207C103.96 20.1207 103.446 20.3541 103.073 20.8207C102.7 21.2741 102.513 21.9074 102.513 22.7207V27.0207C102.513 27.8741 102.093 28.3007 101.253 28.3007Z" fill="#FFC200"/>
</g>
<defs>
<clipPath id="clip0_108_56">
<rect width="171" height="185" fill="white"/>
</clipPath>
</defs>
</svg>
